<?xml version="1.0" encoding="UTF-8"?>
<svg version="1.1" xmlns="http://www.w3.org/2000/svg" width="95" height="88">
<path d="M0 0 C31.35 0 62.7 0 95 0 C95 29.04 95 58.08 95 88 C63.65 88 32.3 88 0 88 C0 58.96 0 29.92 0 0 Z " fill="#FEFEFE" transform="translate(0,0)"/>
<path d="M0 0 C2.4375 0.6875 2.4375 0.6875 5 2 C5.66015625 4.58203125 5.66015625 4.58203125 6 7 C7.03447266 6.82210937 7.03447266 6.82210937 8.08984375 6.640625 C15.0768212 5.68219188 19.99336176 6.14574046 26 10 C26.51175781 10.52722656 27.02351563 11.05445313 27.55078125 11.59765625 C29.73673382 13.71290415 32.06064824 13.67340536 35 14 C35 13.34 35 12.68 35 12 C36.66611905 11.957279 38.33382885 11.95936168 40 12 C40.495 12.495 40.495 12.495 41 13 C40.505 7.555 40.505 7.555 40 2 C42.44964407 4.44964407 42.95462897 6.12594047 43.1328125 9.55859375 C43.13023438 10.50863281 43.12765625 11.45867188 43.125 12.4375 C43.12886719 13.85869141 43.12886719 13.85869141 43.1328125 15.30859375 C43.01473475 17.70140459 42.68112635 19.71336153 42 22 C43.32 22 44.64 22 46 22 C45.7215625 23.175625 45.7215625 23.175625 45.4375 24.375 C44.74037734 26.97089775 44.74037734 26.97089775 46 29 C46.039992 30.99960012 46.04346799 33.00047242 46 35 C45.34 35 44.68 35 44 35 C43.505 32.03 43.505 32.03 43 29 C42.34 29 41.68 29 41 29 C41.1546875 30.3303125 41.1546875 30.3303125 41.3125 31.6875 C40.90501428 36.00684858 39.2277297 37.25642975 36 40 C34.66667905 37.3333581 35.32897967 35.83319697 36 33 C33.91549283 33.2831556 31.83241633 33.57685669 29.75 33.875 C28.58984375 34.03742188 27.4296875 34.19984375 26.234375 34.3671875 C23.39203859 34.9232968 21.47096329 35.56049386 19 37 C18.01 37.495 18.01 37.495 17 38 C17 36.35 17 34.7 17 33 C15.80375 32.484375 14.6075 31.96875 13.375 31.4375 C7.87917931 28.68958966 4.45590962 24.77946381 1.625 19.375 C0.93164761 16.74026093 0.63415014 14.70728893 1 12 C1.99 11.34 2.98 10.68 4 10 C1.525 9.01 1.525 9.01 -1 8 C-0.67 6.68 -0.34 5.36 0 4 C0.99 4.33 1.98 4.66 3 5 C3 4.34 3 3.68 3 3 C2.01 2.67 1.02 2.34 0 2 C0 1.34 0 0.68 0 0 Z " fill="#ECEDEC" transform="translate(27,33)"/>
<path d="M0 0 C2.44964407 2.44964407 2.95462897 4.12594047 3.1328125 7.55859375 C3.13023438 8.50863281 3.12765625 9.45867188 3.125 10.4375 C3.12886719 11.85869141 3.12886719 11.85869141 3.1328125 13.30859375 C3.01473475 15.70140459 2.68112635 17.71336153 2 20 C3.32 20 4.64 20 6 20 C5.7215625 21.175625 5.7215625 21.175625 5.4375 22.375 C4.74037734 24.97089775 4.74037734 24.97089775 6 27 C6.039992 28.99960012 6.04346799 31.00047242 6 33 C5.34 33 4.68 33 4 33 C3.67 31.02 3.34 29.04 3 27 C2.34 27 1.68 27 1 27 C1.103125 27.886875 1.20625 28.77375 1.3125 29.6875 C0.90501428 34.00684858 -0.7722703 35.25642975 -4 38 C-5.33332095 35.3333581 -4.67102033 33.83319697 -4 31 C-6.08450717 31.2831556 -8.16758367 31.57685669 -10.25 31.875 C-11.41015625 32.03742188 -12.5703125 32.19984375 -13.765625 32.3671875 C-16.60796141 32.9232968 -18.52903671 33.56049386 -21 35 C-21.99 35.495 -21.99 35.495 -23 36 C-23 34.35 -23 32.7 -23 31 C-25.475 30.01 -25.475 30.01 -28 29 C-24.86650268 27.95550089 -24.01031744 28.06576355 -21 29 C-21 29.66 -21 30.32 -21 31 C-13.38322341 30.174256 -6.41418202 28.800048 -1 23 C2.38481314 15.93659748 0.87125231 7.51160773 0 0 Z " fill="#99B779" transform="translate(67,35)"/>
<path d="M0 0 C2.44964407 2.44964407 2.95462897 4.12594047 3.1328125 7.55859375 C3.13023438 8.50863281 3.12765625 9.45867188 3.125 10.4375 C3.12757812 11.38496094 3.13015625 12.33242188 3.1328125 13.30859375 C3.01473475 15.70140459 2.68112635 17.71336153 2 20 C3.32 20 4.64 20 6 20 C5.814375 20.78375 5.62875 21.5675 5.4375 22.375 C4.74037734 24.97089775 4.74037734 24.97089775 6 27 C6.039992 28.99960012 6.04346799 31.00047242 6 33 C5.34 33 4.68 33 4 33 C3.67 31.02 3.34 29.04 3 27 C2.34 27 1.68 27 1 27 C1 26.34 1 25.68 1 25 C0.01 24.67 -0.98 24.34 -2 24 C-1.690625 23.05125 -1.38125 22.1025 -1.0625 21.125 C0.93804757 14.06592501 1.40738774 7.19331509 0 0 Z " fill="#7A8868" transform="translate(67,35)"/>
<path d="M0 0 C-3.17963485 4.90193706 -6.49429166 6.62629851 -12 8 C-15 8.1875 -15 8.1875 -17 8 C-12.74925668 1.70889989 -7.53932562 -0.55165797 0 0 Z " fill="#99B47E" transform="translate(64,57)"/>
<path d="M0 0 C3 1.125 3 1.125 5 2.125 C4.67 4.435 4.34 6.745 4 9.125 C3.67 8.465 3.34 7.805 3 7.125 C1.35 7.455 -0.3 7.785 -2 8.125 C-2 6.145 -2 4.165 -2 2.125 C-3.98 3.115 -3.98 3.115 -6 4.125 C-5.625 2.1875 -5.625 2.1875 -5 0.125 C-3 -0.875 -3 -0.875 0 0 Z " fill="#9E9E9E" transform="translate(41,20.875)"/>
<path d="M0 0 C0.33 1.32 0.66 2.64 1 4 C-9 6 -9 6 -11.64453125 6.44140625 C-14.2490042 6.91485939 -14.2490042 6.91485939 -17 9 C-17 7.35 -17 5.7 -17 4 C-19.475 3.01 -19.475 3.01 -22 2 C-18.86650268 0.95550089 -18.01031744 1.06576355 -15 2 C-15 2.66 -15 3.32 -15 4 C-13.24871182 3.71617054 -11.49899997 3.42260471 -9.75 3.125 C-8.77546875 2.96257812 -7.8009375 2.80015625 -6.796875 2.6328125 C-4.22735883 2.05144152 -2.27928944 1.29159735 0 0 Z " fill="#94AE7F" transform="translate(61,62)"/>
<path d="M0 0 C0.66 0 1.32 0 2 0 C2 0.66 2 1.32 2 2 C3.32 2.33 4.64 2.66 6 3 C5.67 4.65 5.34 6.3 5 8 C2.69 7.01 0.38 6.02 -2 5 C-1.34 3.35 -0.68 1.7 0 0 Z " fill="#5D5D5D" transform="translate(56,23)"/>
<path d="M0 0 C1.125 3.75 1.125 3.75 0 6 C1.65 5.67 3.3 5.34 5 5 C5 5.99 5 6.98 5 8 C1.47730515 8.4025937 0.20059192 8.13372795 -2.8125 6.125 C-3.534375 5.42375 -4.25625 4.7225 -5 4 C-5 3.34 -5 2.68 -5 2 C-2 0 -2 0 0 0 Z " fill="#BCBCBC" transform="translate(39,23)"/>
<path d="M0 0 C2.475 0.99 2.475 0.99 5 2 C4.125 6.75 4.125 6.75 3 9 C1.68 8.67 0.36 8.34 -1 8 C-0.67 6.68 -0.34 5.36 0 4 C0.99 4.33 1.98 4.66 3 5 C3 4.34 3 3.68 3 3 C2.01 2.67 1.02 2.34 0 2 C0 1.34 0 0.68 0 0 Z " fill="#383838" transform="translate(27,33)"/>
<path d="M0 0 C0.33 0.66 0.66 1.32 1 2 C1.66 2.33 2.32 2.66 3 3 C2.67 4.32 2.34 5.64 2 7 C2.99 7.33 3.98 7.66 5 8 C3.68 9.32 2.36 10.64 1 12 C-0.26237731 9.47524538 -0.09856404 7.68799534 -0.0625 4.875 C-0.05347656 3.96492188 -0.04445312 3.05484375 -0.03515625 2.1171875 C-0.02355469 1.41851562 -0.01195312 0.71984375 0 0 Z " fill="#9FB383" transform="translate(62,61)"/>
<path d="M0 0 C0.66 0.66 1.32 1.32 2 2 C0.61133677 2.9893091 -0.78629851 3.96603078 -2.1875 4.9375 C-2.96480469 5.48277344 -3.74210937 6.02804688 -4.54296875 6.58984375 C-7.07950299 8.0456289 -9.1218182 8.59613435 -12 9 C-12 8.34 -12 7.68 -12 7 C-11.38511719 6.74605469 -10.77023438 6.49210937 -10.13671875 6.23046875 C-9.32847656 5.88628906 -8.52023438 5.54210938 -7.6875 5.1875 C-6.88699219 4.85105469 -6.08648437 4.51460937 -5.26171875 4.16796875 C-3.03484255 3.01799296 -1.65012233 1.86373039 0 0 Z " fill="#E0F1CD" transform="translate(64,57)"/>
<path d="M0 0 C0.66 1.32 1.32 2.64 2 4 C-1.22791555 6.1519437 -2.28400809 6.20086443 -6 6 C-2.25 1.125 -2.25 1.125 0 0 Z " fill="#A2BB8C" transform="translate(53,59)"/>
<path d="M0 0 C1.65 0.33 3.3 0.66 5 1 C4.67 2.65 4.34 4.3 4 6 C2 6 2 6 0.375 4.5 C-0.07875 4.005 -0.5325 3.51 -1 3 C-0.67 2.01 -0.34 1.02 0 0 Z " fill="#525252" transform="translate(31,30)"/>
<path d="M0 0 C2.31 0.33 4.62 0.66 7 1 C7 1.66 7 2.32 7 3 C7.66 3 8.32 3 9 3 C7.25 6.875 7.25 6.875 5 8 C5 6.35 5 4.7 5 3 C2.525 2.01 2.525 2.01 0 1 C0 0.67 0 0.34 0 0 Z " fill="#7D8771" transform="translate(39,63)"/>
<path d="M0 0 C2.475 0.495 2.475 0.495 5 1 C4.67 2.32 4.34 3.64 4 5 C2.68 5.33 1.36 5.66 0 6 C0 4.02 0 2.04 0 0 Z " fill="#393939" transform="translate(49,23)"/>
<path d="M0 0 C0 1.65 0 3.3 0 5 C-0.99 4.67 -1.98 4.34 -3 4 C-3 3.34 -3 2.68 -3 2 C-5.64 2 -8.28 2 -11 2 C-11 1.67 -11 1.34 -11 1 C-3.375 0 -3.375 0 0 0 Z " fill="#E5F2D8" transform="translate(63,66)"/>
<path d="M0 0 C1.32 1.32 2.64 2.64 4 4 C1.64561267 5.42944945 0.51967567 6.08661261 -2.25 5.625 C-2.8275 5.41875 -3.405 5.2125 -4 5 C-3.01 4.34 -2.02 3.68 -1 3 C-0.67 2.01 -0.34 1.02 0 0 Z " fill="#323232" transform="translate(64,28)"/>
<path d="M0 0 C2.475 0.495 2.475 0.495 5 1 C5 1.99 5 2.98 5 4 C3.35 4.33 1.7 4.66 0 5 C0 3.35 0 1.7 0 0 Z " fill="#313131" transform="translate(39,24)"/>
<path d="M0 0 C1.98 0.66 3.96 1.32 6 2 C4.35 3.32 2.7 4.64 1 6 C0.34 5.67 -0.32 5.34 -1 5 C-0.67 3.35 -0.34 1.7 0 0 Z " fill="#C4C4C4" transform="translate(31,39)"/>
</svg>
